<?xml version="1.0" encoding="utf-8"?>
<!-- Generator: Adobe Illustrator 27.2.0, SVG Export Plug-In . SVG Version: 6.00 Build 0)  -->
<svg version="1.1" id="Layer_1" xmlns="http://www.w3.org/2000/svg" xmlns:xlink="http://www.w3.org/1999/xlink" x="0px" y="0px"
	 viewBox="0 0 48 48" style="enable-background:new 0 0 48 48;" xml:space="preserve">
<style type="text/css">
	.st0{clip-path:url(#SVGID_00000128449554873618719250000003073527019295132563_);}
	.st1{fill:none;stroke:#00B3A4;stroke-width:2;stroke-linecap:round;stroke-linejoin:round;}
</style>
<g>
	<defs>
		<rect id="SVGID_1_" width="48" height="48"/>
	</defs>
	<clipPath id="SVGID_00000125593143253386598240000015722063022426045370_">
		<use xlink:href="#SVGID_1_"  style="overflow:visible;"/>
	</clipPath>
	<g style="clip-path:url(#SVGID_00000125593143253386598240000015722063022426045370_);">
		<path class="st1" d="M20.6,8.6c0.9-3.5,5.8-3.5,6.7,0c0.1,0.5,0.4,1,0.7,1.4c0.4,0.4,0.8,0.7,1.3,0.9s1,0.3,1.6,0.3
			c0.5,0,1.1-0.2,1.5-0.5c3.1-1.9,6.6,1.7,4.7,4.7c-0.3,0.5-0.5,1-0.5,1.5c0,0.5,0,1.1,0.3,1.6c0.2,0.5,0.5,0.9,0.9,1.3
			c0.4,0.4,0.9,0.6,1.4,0.7c3.5,0.9,3.5,5.8,0,6.7c-0.5,0.1-1,0.4-1.4,0.7s-0.7,0.8-0.9,1.3c-0.2,0.5-0.3,1-0.3,1.6
			c0,0.5,0.2,1.1,0.5,1.5c1.9,3.1-1.7,6.6-4.7,4.7c-0.5-0.3-1-0.5-1.5-0.5c-0.5,0-1.1,0-1.6,0.3c-0.5,0.2-0.9,0.5-1.3,0.9
			c-0.4,0.4-0.6,0.9-0.7,1.4c-0.9,3.5-5.8,3.5-6.7,0c-0.1-0.5-0.4-1-0.7-1.4s-0.8-0.7-1.3-0.9c-0.5-0.2-1-0.3-1.6-0.3
			c-0.5,0-1.1,0.2-1.5,0.5c-3.1,1.9-6.6-1.7-4.7-4.7c0.3-0.5,0.5-1,0.5-1.5c0-0.5,0-1.1-0.3-1.6c-0.2-0.5-0.5-0.9-0.9-1.3
			c-0.4-0.4-0.9-0.6-1.4-0.7c-3.5-0.9-3.5-5.8,0-6.7c0.5-0.1,1-0.4,1.4-0.7c0.4-0.4,0.7-0.8,0.9-1.3s0.3-1,0.3-1.6
			c0-0.5-0.2-1.1-0.5-1.5c-1.9-3.1,1.7-6.6,4.7-4.7C17.5,12,20.1,10.9,20.6,8.6z"/>
		<path class="st1" d="M24,30c3.3,0,6-2.7,6-6s-2.7-6-6-6s-6,2.7-6,6S20.7,30,24,30z"/>
	</g>
</g>
</svg>
