<?xml version="1.0" encoding="utf-8"?>
<!-- Generator: Adobe Illustrator 27.2.0, SVG Export Plug-In . SVG Version: 6.00 Build 0)  -->
<svg version="1.1" id="Layer_1" xmlns="http://www.w3.org/2000/svg" xmlns:xlink="http://www.w3.org/1999/xlink" x="0px" y="0px"
	 viewBox="0 0 48 48" style="enable-background:new 0 0 48 48;" xml:space="preserve">
<style type="text/css">
	.st0{clip-path:url(#SVGID_00000158751361150293935050000016939830425598444976_);}
	.st1{fill:none;stroke:#00B3A4;stroke-width:2;}
	.st2{fill:none;stroke:#00B3A4;stroke-width:2;stroke-linecap:square;stroke-linejoin:round;}
</style>
<g>
	<defs>
		<rect id="SVGID_1_" width="48" height="48"/>
	</defs>
	<clipPath id="SVGID_00000003064316497594908540000005612059714409636246_">
		<use xlink:href="#SVGID_1_"  style="overflow:visible;"/>
	</clipPath>
	<g style="clip-path:url(#SVGID_00000003064316497594908540000005612059714409636246_);">
		<path class="st1" d="M11.3,14.3c2.4-3.1,5.8-5.2,9.6-6s7.8-0.1,11.1,1.9c3.4,2,5.9,5.1,7.1,8.8c1.2,3.7,1.1,7.7-0.4,11.3
			c-1.5,3.6-4.3,6.5-7.8,8.2c-3.5,1.7-7.5,2-11.3,1c-3.7-1-7-3.4-9.1-6.7c-2.1-3.3-3-7.2-2.4-11 M2.3,29.9l5-8.7l8.7,5"/>
		<path class="st2" d="M24,17v7"/>
		<line class="st1" x1="23.8" y1="24.3" x2="29.8" y2="31.3"/>
	</g>
</g>
</svg>
